<svg xmlns="http://www.w3.org/2000/svg" xmlns:xlink="http://www.w3.org/1999/xlink" viewBox="0 0 101.59999 152.39999"
   height="152.39999mm"
   width="101.59999mm">
  <g
     transform="translate(-50.497623,26.30714)"
     id="layer1">
    <rect
       style="fill:#{{ border_color }};fill-opacity:1;stroke:none;stroke-width:1.016;stroke-linecap:butt;stroke-miterlimit:4;stroke-dasharray:none;stroke-opacity:1"
       id="rect954"
       width="101.59999"
       height="152.39999"
       x="50.497623"
       y="-26.30714"
       ry="0" />
    <rect
       ry="3.0002017"
       y="-23.723812"
       x="53.309662"
       height="147.23334"
       width="95.975914"
       id="rect913"
       style="fill:#{{ container_color }};fill-opacity:1;stroke:none;stroke-width:1.71;stroke-linecap:butt;stroke-miterlimit:4;stroke-dasharray:none;stroke-opacity:0.76" />
    <g
       id="g911"
       transform="translate(50.497619,-27.516667)"
       style="fill:#{{ text_color }};fill-opacity:1">
      <text
         xml:space="preserve"
         style="font-style:normal;font-variant:normal;font-weight:normal;font-stretch:normal;font-size:{{ title_font_size }}px;line-height:1.25;font-family:Helvetica;-inkscape-font-specification:Helvetica;letter-spacing:0px;word-spacing:0px;fill-opacity:1;stroke:none;stroke-width:0.264583;text-anchor:middle;"
         x="50.8"
         y="126.811"
         id="text1705"><tspan
           id="tspan1703"
           x="50.8"
           y="126.811"
           style="font-style:normal;font-variant:normal;font-weight:bold;font-stretch:normal;font-family:Gotham;-inkscape-font-specification:'Gotham Bold';fill-opacity:1;stroke-width:0.264583;text-anchor:middle;">{{ title }}</tspan></text>
      <text
         id="text871"
         y="137.05081"
         x="50.8"
         style="font-style:normal;font-variant:normal;font-weight:normal;font-stretch:normal;font-size:7.71193px;line-height:1.25;font-family:Helvetica;-inkscape-font-specification:Helvetica;letter-spacing:0px;word-spacing:0px;fill-opacity:1;stroke:none;stroke-width:0.192799;text-anchor:middle;"
         xml:space="preserve"><tspan
           style="font-style:normal;font-variant:normal;font-weight:normal;font-stretch:normal;font-family:Gotham;-inkscape-font-specification:Gotham;fill-opacity:1;stroke-width:0.192799;text-anchor:middle;"
           y="137.05081"
           x="50.8"
           id="tspan869">{{ subtitle }}</tspan></text>
      <text
         id="text871"
         y="137.05081"
         x="50.8"
         style="font-style:normal;font-variant:normal;font-weight:normal;font-stretch:normal;font-size:5px;line-height:1.25;font-family:Helvetica;-inkscape-font-specification:Helvetica;letter-spacing:0px;word-spacing:0px;fill-opacity:1;stroke:none;stroke-width:0.192799;text-anchor:middle;"
         xml:space="preserve"><tspan
           style="font-style:normal;font-variant:normal;font-weight:normal;font-stretch:normal;font-family:Gotham;-inkscape-font-specification:Gotham;fill-opacity:1;stroke-width:0.192799;text-anchor:middle;"
           y="143"
           x="50.8"
           id="tspan869">{{ subtitle2 }}</tspan></text>    </g>
    <image
       id="image1669"
       xlink:href="{{ album_image }}"
       preserveAspectRatio="none"
       height="76.886131"
       width="76.886131"
       x="62.854553"
       y="-13.279321"
       style="fill:#ffffff;fill-opacity:1" />
    <g
       id="g1038"
       transform="translate(43.694054,-2.1076448)">
      <rect
         x="19.160509"
         y="66.772789"
         width="76.886124"
         height="19.221531"
         fill="#ff0000"
         id="rect1571"
         style="fill:#{{ code_background_color }};fill-opacity:1;stroke-width:0.192215" />
      <g id="code-inner-rectangles" fill="#{{ code_color }}">
         <g transform="scale(0.19221529061) translate(100, 25)" transform-origin="0% 50%" x="30">{{ inner_rectangles.replace('fill="#ffffff"', '') }}</g>
         <g
            transform="matrix(0.1922153,0,0,0.1922153,23.004815,70.617096)"
            id="g1621"
            style="fill-opacity:1">
            <path
               d="M 30,0 A 30,30 0 1 1 0,30 30,30 0 0 1 30,0 M 43.73,43.2 A 1.85,1.85 0 0 0 43.26,40.77 5,5 0 0 0 42.78,40.46 30.64,30.64 0 0 0 36.86,37.74 37.07,37.07 0 0 0 25.3,35.9 c -1.33,0.07 -2.67,0.12 -4,0.23 a 52.44,52.44 0 0 0 -7.08,1.12 3.45,3.45 0 0 0 -0.54,0.16 1.83,1.83 0 0 0 -1.11,2.08 1.79,1.79 0 0 0 1.8,1.51 4.29,4.29 0 0 0 0.88,-0.12 48.93,48.93 0 0 1 8.66,-1.15 35.33,35.33 0 0 1 6.75,0.37 28.29,28.29 0 0 1 10.25,3.61 4.77,4.77 0 0 0 0.5,0.27 1.85,1.85 0 0 0 2.33,-0.74 M 47.41,35 A 2.34,2.34 0 0 0 46.63,31.81 L 46.28,31.6 A 35.72,35.72 0 0 0 38.9,28.3 45.39,45.39 0 0 0 23.2,26.17 41.19,41.19 0 0 0 15.81,27.09 c -1,0.22 -2,0.48 -2.94,0.77 a 2.26,2.26 0 0 0 -1.58,2.14 2.32,2.32 0 0 0 1.44,2.2 2.47,2.47 0 0 0 1.67,0 37,37 0 0 1 10.38,-1.46 43,43 0 0 1 7.91,0.74 35.46,35.46 0 0 1 9.58,3.18 c 0.66,0.34 1.3,0.72 1.95,1.08 A 2.33,2.33 0 0 0 47.41,35 m 0.35,-8.49 A 2.79,2.79 0 0 0 52,24.11 c 0,-0.2 0,-0.4 -0.08,-0.6 a 2.78,2.78 0 0 0 -1.4,-1.85 35.91,35.91 0 0 0 -6.41,-2.91 56.19,56.19 0 0 0 -16.86,-2.89 58.46,58.46 0 0 0 -7,0.21 48.31,48.31 0 0 0 -6.52,1 c -0.87,0.2 -1.73,0.42 -2.58,0.7 a 2.73,2.73 0 0 0 -1.85,2.68 2.79,2.79 0 0 0 2,2.61 2.9,2.9 0 0 0 1.6,0 c 0.87,-0.23 1.75,-0.47 2.63,-0.66 a 45.52,45.52 0 0 1 7.26,-0.91 57.42,57.42 0 0 1 6.4,0 53.7,53.7 0 0 1 6.11,0.72 42.63,42.63 0 0 1 8.49,2.35 33.25,33.25 0 0 1 4,2"
               id="path1619"
               style="fill-opacity:1" />
         </g>
      </g>
    </g>
    <rect
       style="fill:none;fill-opacity:1;stroke:#ffffff;stroke-width:2.81032;stroke-linecap:butt;stroke-miterlimit:4;stroke-dasharray:none;stroke-opacity:{{ 1 if round_corners else 0 }};"
       id="rect1040"
       width="76.894882"
       height="97.17704"
       x="62.850182"
       y="-13.27916"
       ry="3.0241532" />
    <rect
       style="fill:none;fill-opacity:1;stroke:#{{ inner_border_color }};stroke-width:0.91;stroke-linecap:butt;stroke-miterlimit:4;stroke-dasharray:none;stroke-opacity:{{ 1 if round_corners else 0 }};"
       id="rect1042"
       width="76.894867"
       height="97.177048"
       x="62.850182"
       y="-13.27916"
       ry="3.0238171" />
  </g>
</svg>
